<svg width="32" height="32" viewBox="0 0 32 32" fill="none" xmlns="http://www.w3.org/2000/svg">
  <defs>
    <linearGradient id="bgGradient" x1="0%" y1="0%" x2="100%" y2="100%">
      <stop offset="0%" style="stop-color:#10b981;stop-opacity:1" />
      <stop offset="100%" style="stop-color:#059669;stop-opacity:1" />
    </linearGradient>
  </defs>
  <rect width="32" height="32" rx="8" fill="url(#bgGradient)"/>
  <!-- WiFi/Signal waves -->
  <path d="M6 20c4-4 8-4 12 0" stroke="white" stroke-width="2" fill="none" stroke-linecap="round"/>
  <path d="M8 22c3-3 5-3 8 0" stroke="white" stroke-width="1.5" fill="none" stroke-linecap="round"/>
  <path d="M10 24c2-2 4-2 4 0" stroke="white" stroke-width="1" fill="none" stroke-linecap="round"/>
  <circle cx="12" cy="25" r="1" fill="white"/>
  
  <!-- Network nodes -->
  <circle cx="24" cy="8" r="2" fill="#34d399"/>
  <circle cx="26" cy="16" r="1.5" fill="#34d399"/>
  <circle cx="22" cy="12" r="1" fill="#34d399"/>
  
  <!-- Connection lines -->
  <path d="M24 8L26 16M24 8L22 12M26 16L22 12" stroke="#34d399" stroke-width="0.5"/>
  
  <!-- Fiber optic line -->
  <path d="M18 6L28 6" stroke="#6ee7b7" stroke-width="2" stroke-linecap="round"/>
  <circle cx="28" cy="6" r="1" fill="#6ee7b7"/>
</svg>